<svg xmlns="http://www.w3.org/2000/svg" viewBox="0 0 64 64">
  <rect width="64" height="64" rx="14" fill="#e8833a"/>
  <!-- раскрытая книга -->
  <path d="M12 18c6-3 14-3 20 1 6-4 14-4 20-1v30c-6-3-14-3-20 1-6-4-14-4-20-1z"
        fill="#fff"/>
  <path d="M32 19v30" stroke="#e8833a" stroke-width="2.5" stroke-linecap="round"/>
  <path d="M17 26c4-1.5 9-1.5 12 0M17 33c4-1.5 9-1.5 12 0M35 26c4-1.5 9-1.5 12 0M35 33c4-1.5 9-1.5 12 0"
        stroke="#e8833a" stroke-width="2" stroke-linecap="round" fill="none" opacity="0.55"/>
</svg>
